<?xml version="1.0" encoding="UTF-8"?>
<svg xmlns="http://www.w3.org/2000/svg" viewBox="0 0 512 512" width="512" height="512">
  <defs>
    <clipPath id="circleClip">
      <circle cx="256" cy="256" r="236"/>
    </clipPath>
  </defs>

  <!-- Black circle background -->
  <circle cx="256" cy="256" r="240" fill="#010101"/>

  <g clip-path="url(#circleClip)">
    <!-- Red layer - offset right and down -->
    <g transform="translate(261, 260) scale(0.36) translate(-365, -377) translate(6, 4)">
      <path d="M224.43,656.74l-9.92,6.57-10.82,7.17-19.44,13.59-24.96,16.07-14.94,10.15-20.56,14.4-22.92,15.14c-16.51,10.9-33.15,16.14-53.29,11.12-27.03-6.74-47.27-31.64-47.29-60.94l-.31-437.64c2.85-.15,4.81.8,6.82,2.38l55.52,43.47,14.76,11.48,8.97,6.97,19.48,15.54,25.9,20.18,45.29,36.11c3.45-5.06,5.62-8.42,8.07-12.87l44.78-81.15,42.21-76.86c13.84-25.21,24.51-48.52,54.28-58.82,30.05-10.39,70.41,3.53,83.81,32.17l20.66,44.13,18.87,41.24,35.74,77.17c1.62,3.51,3.27,6.57,5.33,10.14l22.67-28.86c22.94-29.21,58.01-89.85,74.02-123.82,2.9-6.15,4.92-11.81,6.74-18.47l28.39,17.85,37.65,23.15,14.41,8.84c1.21-5.86.4-10.16-.02-15.68-.57-7.48-.55-15.34.09-22.77,1.2-13.84-1.73-15.25-.08-25.07,1.13-6.72.01-12.51,0-19.15l-.13-58.69c0-2.65,1.3-5.68-.7-7.71-5.36,1.13-9.97,3.35-14.32,6.64-3.61,2.73-7.86,4.32-11.8,6.39l-21.57,11.3-26.68,14.36-18.2,9.83-16.48,8.48-20.21,11.4,22.1,13.53c.6.37,1.97,1.98,2.31,2.61.42.79-.48,2.24-1.11,3.52l-22.46,45.01c-6.41-3.55-12.18-6.88-18.07-10.56l-49.27-30.78-14.83-9.22-24.77-15.29c-.45-2.09,1.59-4.35,3.44-5.37l58.7-32.23,50.14-26.95,72.82-39.19,37.03-19.78,43.15-23.01,25.74-13.98c2.11,7.32-.08,13.03-.07,19.79l.08,99.81.06,12.53.09,84.56c0,7.68.57,14.47.08,22.12-.86,13.26-.77,26.62-.05,39.91.36,6.62.34,12.44-.03,19.05-.79,13.89-.3,27.58-.32,41.99-6.64-.11-10.61-4.92-15.94-8.19l-59.4-36.44-34.97-21.66c-1.42,0-4.03,2.58-5.14,4.59l-8.72,15.74-23.08,37.62c-4.62,7.53-9.49,14.47-14.5,21.55l-12.04,17.02-27.52,35.57-9.22,10.71c-8.43,9.79-17.42,18.36-26.12,27.85l-9.63,10.5c-26.05,28.4-54.98,53.84-85.65,77.1l-13.3,10.09c-2.02,1.53-6.95,4.12-5.62,7.63l34.74,27.38,24.1,19.04,46.91,36.92,17.39,13.66,13.96,10.97,18.04,14.11,31.3,25.48c2.75,2.24,8.43-.05,10.32-1.84,2.47-2.34,2.41-6.65.82-10.2l-22.92-51.27-30.53-66.34-20.98-45.94-14.37-31.01c2.61-3.54,5.13-6.46,8.17-9.5l32.05-32.05c3,4.39,4.34,8.21,6.4,12.57l16.3,34.51,7.99,18.03,6.35,13.65,5.76,12.37,8.25,17.7,5.4,11.59,8.82,18.96,8.63,18.63,18.5,40.52c5.54,12.13,11.72,23.67,12.43,37.32,1.18,22.61-5.13,39.53-22.12,54.05-21.01,17.95-51.54,19.64-74.96,4.29-13.49-8.84-25.11-18.41-37.64-28.41l-69.5-55.49-54.91-43.03-27.18-21.84-14.01-11.4c-8.61,3.89-14.66,10.32-23.35,16.32l-17.2,11.87-14.75,10.16-26.65,18.36-25.31,17.2ZM265.94,459.77l66.24,52.72c8.6-5.71,15.71-11.58,23.69-18.1,31.72-25.9,61.79-52.94,91.23-81.43,2.11-2.04,2.11-4.8,1-7.26l-35.31-77.79-20.47-44.5-17.02-38.13c-4.2-9.41-8.14-18.46-13.77-27.1-1.5-2.3-4.97-4.81-7.23-6.56-8.38-6.48-19.39,5.99-21.05,8.92l-10.21,18.11-33.74,61.22-24,44.03-23.64,42.27-13.43,23.74c-2.71,4.79-5.78,8.96-6.31,15.04l39.45,31.35,4.56,3.47ZM134.12,466.54l15.44-28.61-26.57-21.15-42.46-33.54-25.51-19.81.08,244.77c2.36-1.01,3.59-3.16,4.8-5.33l12.2-21.83,28.58-52.54,33.44-61.96ZM84.31,673.59l-6.9,9.77c.1,2.62-.28,4.05-1.28,7.23l14.25-9.73,83.51-56.19,31.84-21.34,49.72-34.19,30.95-21.56c-8.09-7.22-15.23-12.61-23.3-19.03l-66.16-52.67c-.98-.78-3.09-1.7-3.87-1.18s-2.18,2.35-2.62,3.28l-3.52,7.53c-3.79,8.12-8.23,15.49-12.64,23.28l-9.82,17.33-11.35,20.49-11.72,21.44-10.2,18.8-24.41,45.54-14.16,26.96-8.32,14.24Z"
            fill="#FE2C55"/>
    </g>

    <!-- Cyan layer - offset left and up -->
    <g transform="translate(251, 252) scale(0.36) translate(-365, -377) translate(-6, -4)">
      <path d="M224.43,656.74l-9.92,6.57-10.82,7.17-19.44,13.59-24.96,16.07-14.94,10.15-20.56,14.4-22.92,15.14c-16.51,10.9-33.15,16.14-53.29,11.12-27.03-6.74-47.27-31.64-47.29-60.94l-.31-437.64c2.85-.15,4.81.8,6.82,2.38l55.52,43.47,14.76,11.48,8.97,6.97,19.48,15.54,25.9,20.18,45.29,36.11c3.45-5.06,5.62-8.42,8.07-12.87l44.78-81.15,42.21-76.86c13.84-25.21,24.51-48.52,54.28-58.82,30.05-10.39,70.41,3.53,83.81,32.17l20.66,44.13,18.87,41.24,35.74,77.17c1.62,3.51,3.27,6.57,5.33,10.14l22.67-28.86c22.94-29.21,58.01-89.85,74.02-123.82,2.9-6.15,4.92-11.81,6.74-18.47l28.39,17.85,37.65,23.15,14.41,8.84c1.21-5.86.4-10.16-.02-15.68-.57-7.48-.55-15.34.09-22.77,1.2-13.84-1.73-15.25-.08-25.07,1.13-6.72.01-12.51,0-19.15l-.13-58.69c0-2.65,1.3-5.68-.7-7.71-5.36,1.13-9.97,3.35-14.32,6.64-3.61,2.73-7.86,4.32-11.8,6.39l-21.57,11.3-26.68,14.36-18.2,9.83-16.48,8.48-20.21,11.4,22.1,13.53c.6.37,1.97,1.98,2.31,2.61.42.79-.48,2.24-1.11,3.52l-22.46,45.01c-6.41-3.55-12.18-6.88-18.07-10.56l-49.27-30.78-14.83-9.22-24.77-15.29c-.45-2.09,1.59-4.35,3.44-5.37l58.7-32.23,50.14-26.95,72.82-39.19,37.03-19.78,43.15-23.01,25.74-13.98c2.11,7.32-.08,13.03-.07,19.79l.08,99.81.06,12.53.09,84.56c0,7.68.57,14.47.08,22.12-.86,13.26-.77,26.62-.05,39.91.36,6.62.34,12.44-.03,19.05-.79,13.89-.3,27.58-.32,41.99-6.64-.11-10.61-4.92-15.94-8.19l-59.4-36.44-34.97-21.66c-1.42,0-4.03,2.58-5.14,4.59l-8.72,15.74-23.08,37.62c-4.62,7.53-9.49,14.47-14.5,21.55l-12.04,17.02-27.52,35.57-9.22,10.71c-8.43,9.79-17.42,18.36-26.12,27.85l-9.63,10.5c-26.05,28.4-54.98,53.84-85.65,77.1l-13.3,10.09c-2.02,1.53-6.95,4.12-5.62,7.63l34.74,27.38,24.1,19.04,46.91,36.92,17.39,13.66,13.96,10.97,18.04,14.11,31.3,25.48c2.75,2.24,8.43-.05,10.32-1.84,2.47-2.34,2.41-6.65.82-10.2l-22.92-51.27-30.53-66.34-20.98-45.94-14.37-31.01c2.61-3.54,5.13-6.46,8.17-9.5l32.05-32.05c3,4.39,4.34,8.21,6.4,12.57l16.3,34.51,7.99,18.03,6.35,13.65,5.76,12.37,8.25,17.7,5.4,11.59,8.82,18.96,8.63,18.63,18.5,40.52c5.54,12.13,11.72,23.67,12.43,37.32,1.18,22.61-5.13,39.53-22.12,54.05-21.01,17.95-51.54,19.64-74.96,4.29-13.49-8.84-25.11-18.41-37.64-28.41l-69.5-55.49-54.91-43.03-27.18-21.84-14.01-11.4c-8.61,3.89-14.66,10.32-23.35,16.32l-17.2,11.87-14.75,10.16-26.65,18.36-25.31,17.2ZM265.94,459.77l66.24,52.72c8.6-5.71,15.71-11.58,23.69-18.1,31.72-25.9,61.79-52.94,91.23-81.43,2.11-2.04,2.11-4.8,1-7.26l-35.31-77.79-20.47-44.5-17.02-38.13c-4.2-9.41-8.14-18.46-13.77-27.1-1.5-2.3-4.97-4.81-7.23-6.56-8.38-6.48-19.39,5.99-21.05,8.92l-10.21,18.11-33.74,61.22-24,44.03-23.64,42.27-13.43,23.74c-2.71,4.79-5.78,8.96-6.31,15.04l39.45,31.35,4.56,3.47ZM134.12,466.54l15.44-28.61-26.57-21.15-42.46-33.54-25.51-19.81.08,244.77c2.36-1.01,3.59-3.16,4.8-5.33l12.2-21.83,28.58-52.54,33.44-61.96ZM84.31,673.59l-6.9,9.77c.1,2.62-.28,4.05-1.28,7.23l14.25-9.73,83.51-56.19,31.84-21.34,49.72-34.19,30.95-21.56c-8.09-7.22-15.23-12.61-23.3-19.03l-66.16-52.67c-.98-.78-3.09-1.7-3.87-1.18s-2.18,2.35-2.62,3.28l-3.52,7.53c-3.79,8.12-8.23,15.49-12.64,23.28l-9.82,17.33-11.35,20.49-11.72,21.44-10.2,18.8-24.41,45.54-14.16,26.96-8.32,14.24Z"
            fill="#25F4EE"/>
    </g>

    <!-- White main layer -->
    <g transform="translate(256, 256) scale(0.36) translate(-365, -377)">
      <path d="M224.43,656.74l-9.92,6.57-10.82,7.17-19.44,13.59-24.96,16.07-14.94,10.15-20.56,14.4-22.92,15.14c-16.51,10.9-33.15,16.14-53.29,11.12-27.03-6.74-47.27-31.64-47.29-60.94l-.31-437.64c2.85-.15,4.81.8,6.82,2.38l55.52,43.47,14.76,11.48,8.97,6.97,19.48,15.54,25.9,20.18,45.29,36.11c3.45-5.06,5.62-8.42,8.07-12.87l44.78-81.15,42.21-76.86c13.84-25.21,24.51-48.52,54.28-58.82,30.05-10.39,70.41,3.53,83.81,32.17l20.66,44.13,18.87,41.24,35.74,77.17c1.62,3.51,3.27,6.57,5.33,10.14l22.67-28.86c22.94-29.21,58.01-89.85,74.02-123.82,2.9-6.15,4.92-11.81,6.74-18.47l28.39,17.85,37.65,23.15,14.41,8.84c1.21-5.86.4-10.16-.02-15.68-.57-7.48-.55-15.34.09-22.77,1.2-13.84-1.73-15.25-.08-25.07,1.13-6.72.01-12.51,0-19.15l-.13-58.69c0-2.65,1.3-5.68-.7-7.71-5.36,1.13-9.97,3.35-14.32,6.64-3.61,2.73-7.86,4.32-11.8,6.39l-21.57,11.3-26.68,14.36-18.2,9.83-16.48,8.48-20.21,11.4,22.1,13.53c.6.37,1.97,1.98,2.31,2.61.42.79-.48,2.24-1.11,3.52l-22.46,45.01c-6.41-3.55-12.18-6.88-18.07-10.56l-49.27-30.78-14.83-9.22-24.77-15.29c-.45-2.09,1.59-4.35,3.44-5.37l58.7-32.23,50.14-26.95,72.82-39.19,37.03-19.78,43.15-23.01,25.74-13.98c2.11,7.32-.08,13.03-.07,19.79l.08,99.81.06,12.53.09,84.56c0,7.68.57,14.47.08,22.12-.86,13.26-.77,26.62-.05,39.91.36,6.62.34,12.44-.03,19.05-.79,13.89-.3,27.58-.32,41.99-6.64-.11-10.61-4.92-15.94-8.19l-59.4-36.44-34.97-21.66c-1.42,0-4.03,2.58-5.14,4.59l-8.72,15.74-23.08,37.62c-4.62,7.53-9.49,14.47-14.5,21.55l-12.04,17.02-27.52,35.57-9.22,10.71c-8.43,9.79-17.42,18.36-26.12,27.85l-9.63,10.5c-26.05,28.4-54.98,53.84-85.65,77.1l-13.3,10.09c-2.02,1.53-6.95,4.12-5.62,7.63l34.74,27.38,24.1,19.04,46.91,36.92,17.39,13.66,13.96,10.97,18.04,14.11,31.3,25.48c2.75,2.24,8.43-.05,10.32-1.84,2.47-2.34,2.41-6.65.82-10.2l-22.92-51.27-30.53-66.34-20.98-45.94-14.37-31.01c2.61-3.54,5.13-6.46,8.17-9.5l32.05-32.05c3,4.39,4.34,8.21,6.4,12.57l16.3,34.51,7.99,18.03,6.35,13.65,5.76,12.37,8.25,17.7,5.4,11.59,8.82,18.96,8.63,18.63,18.5,40.52c5.54,12.13,11.72,23.67,12.43,37.32,1.18,22.61-5.13,39.53-22.12,54.05-21.01,17.95-51.54,19.64-74.96,4.29-13.49-8.84-25.11-18.41-37.64-28.41l-69.5-55.49-54.91-43.03-27.18-21.84-14.01-11.4c-8.61,3.89-14.66,10.32-23.35,16.32l-17.2,11.87-14.75,10.16-26.65,18.36-25.31,17.2ZM265.94,459.77l66.24,52.72c8.6-5.71,15.71-11.58,23.69-18.1,31.72-25.9,61.79-52.94,91.23-81.43,2.11-2.04,2.11-4.8,1-7.26l-35.31-77.79-20.47-44.5-17.02-38.13c-4.2-9.41-8.14-18.46-13.77-27.1-1.5-2.3-4.97-4.81-7.23-6.56-8.38-6.48-19.39,5.99-21.05,8.92l-10.21,18.11-33.74,61.22-24,44.03-23.64,42.27-13.43,23.74c-2.71,4.79-5.78,8.96-6.31,15.04l39.45,31.35,4.56,3.47ZM134.12,466.54l15.44-28.61-26.57-21.15-42.46-33.54-25.51-19.81.08,244.77c2.36-1.01,3.59-3.16,4.8-5.33l12.2-21.83,28.58-52.54,33.44-61.96ZM84.31,673.59l-6.9,9.77c.1,2.62-.28,4.05-1.28,7.23l14.25-9.73,83.51-56.19,31.84-21.34,49.72-34.19,30.95-21.56c-8.09-7.22-15.23-12.61-23.3-19.03l-66.16-52.67c-.98-.78-3.09-1.7-3.87-1.18s-2.18,2.35-2.62,3.28l-3.52,7.53c-3.79,8.12-8.23,15.49-12.64,23.28l-9.82,17.33-11.35,20.49-11.72,21.44-10.2,18.8-24.41,45.54-14.16,26.96-8.32,14.24Z"
            fill="#FFFFFF"/>
    </g>
  </g>
</svg>